HIERARCHY
ROOT joint_Root
{
	OFFSET 0.0 0.0 0.0
	CHANNELS 6 Xposition Yposition Zposition Zrotation Xrotation Yrotation 
	JOINT Hips
	{
		OFFSET 4.5925 91.4895 -427.239
		CHANNELS 6 Xposition Yposition Zposition Zrotation Xrotation Yrotation 
		JOINT Spine
		{
			OFFSET 15.7357 0.0 0.0
			CHANNELS 6 Xposition Yposition Zposition Zrotation Xrotation Yrotation 
			JOINT Chest
			{
				OFFSET 8.98455 -0.406207 0.0
				CHANNELS 6 Xposition Yposition Zposition Zrotation Xrotation Yrotation 
				JOINT Neck
				{
					OFFSET 16.3773 0.0 0.0
					CHANNELS 6 Xposition Yposition Zposition Zrotation Xrotation Yrotation 
					JOINT Head
					{
						OFFSET 6.45672 0.0 0.0
						CHANNELS 6 Xposition Yposition Zposition Zrotation Xrotation Yrotation 
						End Site
						{
							OFFSET 0.0 0.0 0.0
						}
					}
				}
				JOINT Shoulder_L
				{
					OFFSET 12.9942 -0.242716 4.98039
					CHANNELS 6 Xposition Yposition Zposition Zrotation Xrotation Yrotation 
					JOINT UpperArm_L
					{
						OFFSET 5.34809 0.0 0.0
						CHANNELS 6 Xposition Yposition Zposition Zrotation Xrotation Yrotation 
						JOINT LowerArm_L
						{
							OFFSET 24.3286 1.87007e-05 0.0
							CHANNELS 6 Xposition Yposition Zposition Zrotation Xrotation Yrotation 
							JOINT Hand_L
							{
								OFFSET 22.2916 0.0 0.0
								CHANNELS 6 Xposition Yposition Zposition Zrotation Xrotation Yrotation 
								End Site
								{
									OFFSET 0.0 0.0 0.0
								}
							}
						}
					}
				}
				JOINT Shoulder_R
				{
					OFFSET 12.9945 -0.242716 -4.98039
					CHANNELS 6 Xposition Yposition Zposition Zrotation Xrotation Yrotation 
					JOINT UpperArm_R
					{
						OFFSET -5.34813 0.0 0.0
						CHANNELS 6 Xposition Yposition Zposition Zrotation Xrotation Yrotation 
						JOINT LowerArm_R
						{
							OFFSET -24.3289 0.000322201 0.0
							CHANNELS 6 Xposition Yposition Zposition Zrotation Xrotation Yrotation 
							JOINT Hand_R
							{
								OFFSET -22.2915 -0.000108084 0.0
								CHANNELS 6 Xposition Yposition Zposition Zrotation Xrotation Yrotation 
								End Site
								{
									OFFSET 0.0 0.0 0.0
								}
							}
						}
					}
				}
			}
		}
		JOINT UpperLeg_L
		{
			OFFSET -2.19248 -6.46944 0.0
			CHANNELS 6 Xposition Yposition Zposition Zrotation Xrotation Yrotation 
			JOINT LowerLeg_L
			{
				OFFSET 39.0811 0.0 -1.23785e-05
				CHANNELS 6 Xposition Yposition Zposition Zrotation Xrotation Yrotation 
				JOINT Foot_L
				{
					OFFSET 40.9854 0.0 -1.26872e-05
					CHANNELS 6 Xposition Yposition Zposition Zrotation Xrotation Yrotation 
					JOINT Toes_L
					{
						OFFSET 11.7543 0.0 0.0
						CHANNELS 6 Xposition Yposition Zposition Zrotation Xrotation Yrotation 
						End Site
						{
							OFFSET 0.0 0.0 0.0
						}
					}
				}
			}
		}
		JOINT UpperLeg_R
		{
			OFFSET -2.19251 6.46944 0.0
			CHANNELS 6 Xposition Yposition Zposition Zrotation Xrotation Yrotation 
			JOINT LowerLeg_R
			{
				OFFSET -39.0811 -0.00228153 -0.0401928
				CHANNELS 6 Xposition Yposition Zposition Zrotation Xrotation Yrotation 
				JOINT Foot_R
				{
					OFFSET -40.9854 0.0 0.0
					CHANNELS 6 Xposition Yposition Zposition Zrotation Xrotation Yrotation 
					JOINT Toes_R
					{
						OFFSET -11.7543 0.0 0.0
						CHANNELS 6 Xposition Yposition Zposition Zrotation Xrotation Yrotation 
						End Site
						{
							OFFSET 0.0 0.0 0.0
						}
					}
				}
			}
		}
	}
}
MOTION
Frames:	4
Frame Time:	0.0333333
0.000000 0.000000 0.000000 0.000000 0.000000 -0.000000 -0.582845 91.860600 2.096370 89.575200 0.191979 0.682929 15.735700 0.000005 -0.000001 82.167000 87.185200 -82.048500 8.984550 -0.406207 -0.000000 -2.188180 -0.777319 0.222150 16.377300 -0.000001 -0.000001 6.153170 -3.819420 2.135650 6.456720 -0.000001 -0.000000 0.011812 -3.597580 -1.746740 12.994200 -0.242716 4.980390 -84.388200 -9.754490 -59.888600 5.348090 -0.000007 -0.000001 -40.836700 -62.975100 -85.488100 24.328600 0.000019 0.000005 5.828760 5.864850 -44.972500 22.291600 -0.000001 0.000005 25.970800 5.344110 -1.201300 12.994500 -0.242716 -4.980390 94.536500 -9.897980 -65.223000 -5.348130 -0.000001 -0.000004 -46.313500 -63.351800 -88.616200 -24.328900 0.000322 -0.000009 -4.572720 -4.584830 -45.008300 -22.291500 -0.000108 -0.000004 23.739400 5.585080 -10.488100 -2.192480 -6.469440 -0.000000 -176.208000 -12.697000 -4.727970 39.081100 -0.000007 -0.000012 -0.135212 0.312580 23.391800 40.985400 -0.000006 -0.000013 0.325938 8.367440 -67.976800 11.754300 -0.000000 0.000003 -0.000240 -0.002155 -16.658400 -2.192510 6.469440 -0.000001 177.042000 26.335600 176.251000 -39.081100 -0.002282 -0.040193 0.005763 -0.005661 23.382100 -40.985400 0.000008 0.000006 5.530700 12.704300 -69.359500 -11.754300 -0.000006 -0.000006 -0.001312 -0.019751 -17.376300
0.000000 0.000000 0.000000 0.000000 0.000000 -0.000000 -0.556668 91.859300 2.131590 89.560100 0.177761 0.667472 15.735700 0.000005 -0.000001 81.780900 87.154500 -81.659900 8.984550 -0.406207 -0.000000 -2.132790 -0.823786 0.226683 16.377300 -0.000001 -0.000001 6.089970 -3.863270 2.181380 6.456720 -0.000001 -0.000000 0.022363 -3.516590 -1.782150 12.994200 -0.242716 4.980390 -84.595800 -9.403280 -59.928200 5.348090 -0.000007 -0.000001 -39.577600 -62.599900 -82.701500 24.328600 0.000019 0.000005 5.416410 5.185100 -46.374700 22.291600 -0.000001 0.000005 25.546000 5.351600 -1.425470 12.994500 -0.242716 -4.980390 94.425800 -9.655220 -65.227400 -5.348130 -0.000001 -0.000004 -44.286900 -62.818400 -85.522600 -24.328900 0.000322 -0.000009 -4.945860 -4.764570 -46.166400 -22.291500 -0.000108 -0.000004 24.021900 5.574680 -9.931160 -2.192480 -6.469440 -0.000000 -176.207000 -12.752900 -4.707090 39.081100 -0.000007 -0.000012 -0.135480 0.313281 23.386400 40.985400 -0.000006 -0.000013 0.349728 8.388440 -68.009100 11.754300 -0.000000 0.000003 -0.000239 -0.002147 -16.658100 -2.192510 6.469440 -0.000001 177.039000 26.287500 176.256000 -39.081100 -0.002282 -0.040193 0.005605 -0.005295 23.382800 -40.985400 0.000008 0.000006 5.495480 12.684500 -69.342000 -11.754300 -0.000006 -0.000006 -0.001157 -0.017617 -17.289500
0.000000 0.000000 0.000000 0.000000 0.000000 -0.000000 -0.532227 91.837000 2.169570 89.553600 0.142697 0.750438 15.735700 0.000005 -0.000001 81.551100 87.099800 -81.440700 8.984550 -0.406207 -0.000000 -2.027790 -0.861453 0.205384 16.377300 -0.000001 -0.000001 5.954860 -3.922750 2.215700 6.456720 -0.000001 -0.000000 0.203189 -3.473870 -1.787170 12.994200 -0.242716 4.980390 -84.884200 -8.970050 -60.136200 5.348090 -0.000007 -0.000001 -36.051500 -61.608600 -77.434100 24.328600 0.000019 0.000005 4.843100 4.517340 -47.090800 22.291600 -0.000001 0.000005 25.186900 5.348060 -1.318770 12.994500 -0.242716 -4.980390 94.190700 -9.218460 -65.421200 -5.348130 -0.000001 -0.000004 -40.885900 -61.660000 -80.234400 -24.328900 0.000322 -0.000009 -5.787510 -5.150670 -48.460600 -22.291500 -0.000108 -0.000004 24.279900 5.560820 -9.228060 -2.192480 -6.469440 -0.000000 -176.190000 -12.753300 -4.661540 39.081100 -0.000007 -0.000012 -0.137207 0.315220 23.522300 40.985400 -0.000006 -0.000013 0.371012 8.376610 -68.107600 11.754300 -0.000000 0.000003 -0.000232 -0.002099 -16.656400 -2.192510 6.469440 -0.000001 176.981000 26.203500 176.332000 -39.081100 -0.002282 -0.040193 0.005491 -0.005012 23.470000 -40.985400 0.000008 0.000006 5.467640 12.646300 -69.428300 -11.754300 -0.000006 -0.000006 -0.001170 -0.017796 -17.296800
0.000000 0.000000 0.000000 0.000000 0.000000 -0.000000 -0.513498 91.807400 2.207840 89.549300 0.086035 0.944696 15.735700 0.000005 -0.000001 81.422400 87.023100 -81.316300 8.984550 -0.406207 -0.000000 -1.878080 -0.896701 0.197407 16.377300 -0.000001 -0.000001 5.801340 -3.933090 2.171250 6.456720 -0.000001 -0.000000 0.436755 -3.433690 -1.779970 12.994200 -0.242716 4.980390 -85.242500 -8.447020 -60.465500 5.348090 -0.000007 -0.000001 -32.095800 -59.537900 -71.020700 24.328600 0.000019 0.000005 4.513400 4.134010 -47.595900 22.291600 -0.000001 0.000005 24.201900 5.331990 -0.842976 12.994500 -0.242716 -4.980390 93.818500 -8.504460 -65.709100 -5.348130 -0.000001 -0.000004 -37.590400 -59.446600 -74.181500 -24.328900 0.000322 -0.000009 -6.751190 -5.346660 -51.784800 -22.291500 -0.000108 -0.000004 24.627800 5.550390 -8.724520 -2.192480 -6.469440 -0.000000 -176.153000 -12.804000 -4.507620 39.081100 -0.000007 -0.000012 -0.137078 0.312319 23.696900 40.985400 -0.000006 -0.000013 0.392253 8.344100 -68.235300 11.754300 -0.000000 0.000003 -0.000235 -0.002117 -16.657000 -2.192510 6.469440 -0.000001 176.870000 26.144700 176.505000 -39.081100 -0.002282 -0.040193 0.005541 -0.005094 23.613000 -40.985400 0.000008 0.000006 5.481320 12.619500 -69.554000 -11.754300 -0.000006 -0.000006 -0.001160 -0.017658 -17.291200
